<svg xmlns="http://www.w3.org/2000/svg" width="115" height="40" viewBox="0 0 115 40" fill="none"><path d="M108.113 0.675293H115V24.3833V30.36H108.113V0.675293Z" fill="#FF7A00"></path><path d="M31.5796 0.675293H38.4662V24.3833V30.36H31.5796V0.675293Z" fill="#FF7A00"></path><path d="M21.3911 0.675293H28.2778V24.3833V30.36H21.3911V0.675293Z" fill="#FF7A00"></path><path d="M67.5738 33.3483L76.0615 33.2837C76.6134 33.2837 77.0609 32.8362 77.0609 32.2842L77.0709 29.4799H76.9118C76.2007 30.1511 75.1317 30.8274 72.8345 30.8274C68.3594 30.8274 65.1572 27.4213 65.1572 22.7523V10.1177H72.0389V21.6336C72.0389 23.0407 73.1726 24.2241 74.5748 24.2042C75.977 24.1844 76.9864 23.1203 76.9864 21.6733V10.1177H83.8183L83.873 37.2367C83.873 38.2361 82.9283 39.325 81.7648 39.325H67.5688V33.3483H67.5738Z" fill="#FF7A00"></path><path d="M62.6412 20.2314C62.6412 26.4816 58.1263 30.9169 51.8016 30.9169C45.4768 30.9169 40.9619 26.4816 40.9619 20.2314C40.9619 14.021 45.4768 9.58569 51.8016 9.58569C58.1263 9.58569 62.6412 14.021 62.6412 20.2314ZM47.6745 20.3508C47.6745 23.2049 49.2955 25.0943 51.8016 25.0943C54.3076 25.0943 55.9286 23.2049 55.9286 20.3508C55.9286 17.4171 54.3076 15.4928 51.8016 15.4928C49.2955 15.4928 47.6745 17.4221 47.6745 20.3508Z" fill="#FF7A00"></path><path d="M7.01593 18.1579C9.06453 18.1579 10.4667 18.5607 11.6104 19.7043L11.6302 17.3325C11.6302 17.3325 11.7148 16.0049 10.4966 15.995H2.28726V10.1177H14.1114C17.9252 10.1177 18.0992 14.2298 18.0992 14.2298V30.3451H11.6302V28.4506H11.5109C10.7601 30.1859 8.87061 30.9765 6.70268 30.9765C2.6403 30.9765 0 28.4108 0 24.5871C0 20.7634 2.79941 18.1579 7.02091 18.1579H7.01593ZM11.3916 24.2689C11.3916 23.165 10.4866 22.454 9.02475 22.454C7.64245 22.454 6.65793 23.165 6.65793 24.2689C6.65793 25.3727 7.64245 26.1236 9.02475 26.1236C10.4816 26.1236 11.3916 25.4125 11.3916 24.2689Z" fill="#FF7A00"></path><path d="M93.6536 18.1579C95.7022 18.1579 97.1044 18.5607 98.2481 19.7043L98.2679 17.3325C98.2679 17.3325 98.3525 16.0049 97.1342 15.995H88.925V10.1177H100.749C104.563 10.1177 104.737 14.2298 104.737 14.2298V30.3451H98.2679V28.4506H98.1486C97.3978 30.1859 95.5083 30.9765 93.3404 30.9765C89.278 30.9765 86.6377 28.4108 86.6377 24.5871C86.6377 20.7634 89.4371 18.1579 93.6586 18.1579H93.6536ZM98.0342 24.2689C98.0342 23.165 97.1293 22.454 95.6674 22.454C94.2851 22.454 93.3006 23.165 93.3006 24.2689C93.3006 25.3727 94.2851 26.1236 95.6674 26.1236C97.1243 26.1236 98.0342 25.4125 98.0342 24.2689Z" fill="#FF7A00"></path></svg>